<?xml version="1.0" encoding="UTF-8"?>
<svg width="35px" height="35px" viewBox="0 0 35 35" version="1.1" xmlns="http://www.w3.org/2000/svg" xmlns:xlink="http://www.w3.org/1999/xlink">
    <title>形状</title>
    <g id="页面-1" stroke="none" stroke-width="1" fill="none" fill-rule="evenodd">
        <g id="点餐页面" transform="translate(-1492.000000, -38.000000)" fill="#3E464C" fill-rule="nonzero">
            <g id="购物车" transform="translate(1492.000000, 38.000000)">
                <path d="M17.4999799,7.12595499e-16 C7.83501154,7.12595499e-16 7.12567895e-16,7.83507437 7.12567895e-16,17.5000201 C7.12567895e-16,27.1649697 7.83501154,35 17.4999799,35 C27.1649885,35 35,27.1649657 35,17.5000201 C35,7.83511452 27.1649925,7.12595499e-16 17.4999799,7.12595499e-16 Z M12.5,27 C11.6716782,27 11,26.3285141 11,25.5000671 C11,24.6715351 11.6716737,24 12.5,24 C13.3285008,24 14,24.6715306 14,25.5000671 C14.0000403,26.3285141 13.3285008,27 12.5,27 Z M21.0000217,27 C19.8954755,27 19,26.1045048 19,24.9998915 C19,23.8953259 19.8955233,23 21.0000217,23 C22.1046113,23 23,23.895365 23,24.9998915 C23,26.1045048 22.1045679,27 21.0000217,27 Z M29,10.2698386 C29,10.7878556 28.5501346,11.2078076 27.9952138,11.2078076 L24.8341613,11.2078076 L21.2467871,21.3563371 C21.1105774,21.7737872 20.7058867,22.0285396 20.2835918,21.9960661 C20.2573369,21.9980947 20.2308428,22 20.2039142,22 L10.5666178,22 C10.0263552,22 9.58844129,21.5799286 9.58844129,21.0619514 L9.58844129,20.7718197 C9.58844129,20.2538425 10.0263552,19.8337313 10.5666178,19.8337313 L19.4836582,19.8337313 L19.9592603,18.4887257 L8.94208908,18.4887257 C8.42290294,18.4887257 8.00195943,18.0688135 8.00195943,17.5507169 L8.00195943,17.2606647 C8.00195943,16.7425682 8.42290294,16.3226161 8.94208908,16.3226161 L20.7119449,16.3226161 C20.7162065,16.3226161 20.7203923,16.3232526 20.724574,16.3232923 L21.1886631,15.0105653 L7.94012965,15.0105653 C7.42086378,15.0105653 7,14.5906132 7,14.0725565 L7,13.7824247 C7,13.2644078 7.42086378,12.8444159 7.94012965,12.8444159 L21.9543746,12.8444159 L23.0827055,9.65268814 C23.2052098,9.27665729 23.5459575,9.03251723 23.9208453,9.01152721 C23.9696078,9.00464985 24.019048,9 24.0698436,9 L27.995174,9 C28.5500949,9 29,9.41991226 29,9.93800878 L29,10.2698399 L29,10.2698386 Z" id="形状"></path>
            </g>
        </g>
    </g>
</svg>