<?xml version="1.0" encoding="UTF-8"?>
<svg width="24px" height="24px" viewBox="0 0 24 24" version="1.1" xmlns="http://www.w3.org/2000/svg" xmlns:xlink="http://www.w3.org/1999/xlink">
    <title>形状</title>
    <g id="页面-1" stroke="none" stroke-width="1" fill="none" fill-rule="evenodd">
        <g id="点餐页面" transform="translate(-90.000000, -988.000000)" fill="#3E464C" fill-rule="nonzero">
            <g id="编组-12" transform="translate(64.000000, 976.000000)">
                <g id="编组-11" transform="translate(25.999976, 10.000000)">
                    <g id="编组" transform="translate(0.000000, 2.000000)">
                        <path d="M22.0289162,7.89426877 L21.9842966,7.89426877 C20.9501738,3.22234327 16.6089576,-0.0899994199 11.6351942,0.00186428384 C6.66143086,0.0937279876 2.45144855,3.56092663 1.6036778,8.26434826 C0.679791408,8.41133019 0,9.20923207 0,10.1462419 L0,13.910029 C0.0236220952,14.9703986 0.900264296,15.81292 1.96063391,15.7919226 C2.53018887,15.7840486 3.0682477,15.5294549 3.43045316,15.0911338 C4.31234472,17.3089861 6.05250574,19.0806432 8.25460995,19.9992802 C8.2834814,19.9467867 8.31497753,19.8969178 8.35172301,19.8496736 C8.3753451,19.8103035 8.41471526,19.781432 8.45933477,19.7709333 C8.49345558,19.7709333 8.52495171,19.7840567 8.55382316,19.8024295 C7.09191667,18.5347559 6.11511198,16.7991419 5.79003801,14.8916583 C5.65617947,13.7263016 6.42258523,12.6501839 7.56431983,12.3929656 C9.2519873,12.0858783 10.9265314,11.7446703 12.6141989,11.4507064 C13.6089515,11.3115986 14.4619716,10.6685526 14.8635473,9.74729091 C15.0420253,9.32996723 15.1522618,8.88639677 15.1916319,8.43495229 C15.2047553,8.35358729 15.2677476,8.28797036 15.3464879,8.2722223 C15.4278529,8.25384956 15.5144672,8.28534568 15.5617114,8.35096261 L15.6063309,8.32209116 C16.2729989,9.2643503 17.5669648,11.3247219 17.776939,13.4979547 C17.9921625,15.9861487 17.8740521,17.6974383 15.9029195,19.4428487 C15.874048,19.4717201 15.8582999,19.5110903 15.8582999,19.5504604 C15.8609246,19.602954 15.8871714,19.6501982 15.9317909,19.6764449 L16.0577754,19.6764449 L16.1417651,19.6292008 C18.1260211,18.5688311 19.6273365,16.7893 20.338624,14.6554374 C20.6378372,15.0780104 21.086657,15.3667249 21.5932197,15.463838 C20.7664464,19.1357614 17.3779881,21.4376034 13.1863785,21.7866855 C12.8714172,21.0360278 12.0708907,20.61083 11.2729888,20.77356 C10.3910972,20.9152926 9.78742146,21.7446906 9.92915403,22.6265822 C10.0446398,23.3509931 10.6325675,23.9074247 11.3596031,23.9809156 C12.1627544,24.1016508 12.9422835,23.6397076 13.2178746,22.8733018 C18.0709029,22.4927236 21.9632992,19.7026917 22.7769492,15.3431028 C23.5066094,15.0596377 23.9921747,14.3614735 24.0000488,13.5793197 L24.0000488,9.81290784 C23.9974241,9.30109578 23.7874499,8.81028113 23.4147457,8.45857438 C23.0341675,8.09636892 22.5276048,7.89689345 22.0026694,7.89951813 L22.0289162,7.89426877 L22.0289162,7.89426877 Z M20.2388863,8.98088515 C18.3727407,4.3378311 13.0971395,2.08585802 8.45408542,3.94937887 C6.17586557,4.86539123 4.36746294,6.66329514 3.44095187,8.93626564 C3.37533494,8.86277468 3.30446866,8.79453307 3.23097769,8.72891614 C3.89502104,4.67116511 7.53019903,1.67903305 11.8084229,1.66322267 C16.0866469,1.64753692 19.7428223,4.61867157 20.4357371,8.67117324 C20.3596214,8.77091097 20.2940045,8.87327339 20.2388863,8.98088515 L20.2388863,8.98088515 Z" id="形状"></path>
                    </g>
                </g>
            </g>
        </g>
    </g>
</svg>