<?xml version="1.0" encoding="UTF-8"?>
<svg width="20px" height="20px" viewBox="0 0 20 20" version="1.1" xmlns="http://www.w3.org/2000/svg" xmlns:xlink="http://www.w3.org/1999/xlink">
    <title>路径</title>
    <g id="页面-1" stroke="none" stroke-width="1" fill="none" fill-rule="evenodd">
        <g id="选择商品规格" transform="translate(-1434.000000, -118.000000)" fill="#575B66" fill-rule="nonzero">
            <g id="关闭1" transform="translate(1433.984175, 118.000000)">
                <path d="M11.4222621,9.96627042 L19.7202993,1.71127975 C20.112669,1.32090099 20.1146599,0.688277564 19.7242811,0.295907881 C19.33288,-0.0974841348 18.701279,-0.0984526962 18.3089093,0.291926062 L10.0088811,8.54788529 L1.780956,0.294885549 C1.3915996,-0.0954932099 0.757953813,-0.0974841035 0.36558413,0.292894655 C-0.0258169919,0.683273414 -0.026785522,1.3168654 0.363593236,1.70928889 L8.58952747,9.96024393 L0.295525836,18.2102304 C-0.0968438163,18.6006092 -0.0988347411,19.2332326 0.291544017,19.6256023 C0.48670648,19.8217871 0.743963663,19.9209019 1.00122085,19.9209019 C1.25648713,19.9209019 1.51169959,19.8238318 1.70691589,19.6296379 L10.0029622,11.3776605 L18.3060037,19.7057227 C18.5011661,19.9019076 18.7574548,20 19.014712,20 C19.2709468,20 19.5262131,19.9019076 19.7213755,19.7077137 C20.1127767,19.3173349 20.1137452,18.6847115 19.7233664,18.2923418 L11.4222621,9.96627042 Z" id="路径"></path>
            </g>
        </g>
    </g>
</svg>