<?xml version="1.0" encoding="UTF-8"?>
<svg width="65px" height="64px" viewBox="0 0 65 64" version="1.1" xmlns="http://www.w3.org/2000/svg" xmlns:xlink="http://www.w3.org/1999/xlink">
    <title>编组 8</title>
    <defs>
        <circle id="path-1" cx="32" cy="32" r="24"></circle>
        <filter x="-33.3%" y="-29.2%" width="166.7%" height="166.7%" filterUnits="objectBoundingBox" id="filter-2">
            <feOffset dx="0" dy="2" in="SourceAlpha" result="shadowOffsetOuter1"></feOffset>
            <feGaussianBlur stdDeviation="5" in="shadowOffsetOuter1" result="shadowBlurOuter1"></feGaussianBlur>
            <feColorMatrix values="0 0 0 0 0.827951353   0 0 0 0 0.894401194   0 0 0 0 0.91813328  0 0 0 1 0" type="matrix" in="shadowBlurOuter1"></feColorMatrix>
        </filter>
    </defs>
    <g id="页面-1" stroke="none" stroke-width="1" fill="none" fill-rule="evenodd">
        <g id="点餐页面" transform="translate(-285.000000, -54.000000)">
            <g id="编组-8" transform="translate(285.500000, 54.000000)">
                <g id="椭圆形">
                    <use fill="black" fill-opacity="1" filter="url(#filter-2)" xlink:href="#path-1"></use>
                    <use fill="#FFFFFF" fill-rule="evenodd" xlink:href="#path-1"></use>
                </g>
                <path d="M27.5009864,39.7922916 C29.0990764,40.7140321 30.3006402,42.1932907 30.8752466,43.9463808 C31.6235825,44.0168653 32.3749178,44.018365 33.1232537,43.9478804 C33.6982316,42.1945448 34.9003585,40.7152505 36.4990136,39.7937912 C38.0964893,38.8695223 39.9790349,38.567781 41.7853546,38.946477 C42.2202592,38.3346111 42.595177,37.6822542 42.9071086,36.9999038 C41.6765228,35.6253668 40.9967022,33.8449097 40.9980272,32 C40.9980272,30.1104143 41.7028727,28.3453013 42.9071086,27.0000962 C42.5929709,26.3179679 42.2164513,25.666338 41.7823552,25.053523 C39.9771757,25.4319034 38.0958521,25.1307207 36.4990136,24.2077084 C34.9009236,23.2859679 33.6993598,21.8067093 33.1247534,20.0536192 C32.3764175,19.9831347 31.6250822,19.981635 30.8767463,20.0521196 C30.3017684,21.8054552 29.0996415,23.2847495 27.5009864,24.2062088 C25.9035107,25.1304777 24.0209651,25.432219 22.2146454,25.053523 C21.7805889,25.6658172 21.4050205,26.3175388 21.0928914,27.0000962 C22.3234772,28.3746332 23.0032978,30.1550903 23.0019728,32 C23.0019728,33.8895857 22.2971273,35.6546987 21.0928914,36.9999038 C21.4070291,37.6820321 21.7835487,38.333662 22.2176448,38.946477 C24.0228243,38.5680966 25.9041479,38.8692793 27.5009864,39.7922916 Z M32,36.4990136 C29.5152634,36.4990136 27.5009864,34.4847366 27.5009864,32 C27.5009864,29.5152634 29.5152634,27.5009864 32,27.5009864 C34.4847366,27.5009864 36.4990136,29.5152634 36.4990136,32 C36.4990136,34.4847366 34.4847366,36.4990136 32,36.4990136 Z M32,33.4996712 C32.8282455,33.4996712 33.4996712,32.8282455 33.4996712,32 C33.4996712,31.1717545 32.8282455,30.5003288 32,30.5003288 C31.1717545,30.5003288 30.5003288,31.1717545 30.5003288,32 C30.5003288,32.8282455 31.1717545,33.4996712 32,33.4996712 Z" id="形状" fill="#3E464C" fill-rule="nonzero"></path>
            </g>
        </g>
    </g>
</svg>