<?xml version="1.0" encoding="UTF-8"?>
<svg width="146px" height="146px" viewBox="0 0 146 146" version="1.1" xmlns="http://www.w3.org/2000/svg" xmlns:xlink="http://www.w3.org/1999/xlink">
    <title>编组 19</title>
    <g id="页面-1" stroke="none" stroke-width="1" fill="none" fill-rule="evenodd">
        <g id="暂无商品" transform="translate(-1617.000000, -394.000000)">
            <g id="编组" transform="translate(1617.000000, 394.000000)">
                <rect id="矩形" fill="#5E5E5E" x="26.9421937" y="119.182988" width="11.6857708" height="13.0157212"></rect>
                <g id="编组-19" transform="translate(0.000000, 13.272727)">
                    <g id="编组-13" transform="translate(0.000000, 2.505468)">
                        <rect id="矩形备份-3" fill="#D8D8D8" x="0" y="0" width="77.2559289" height="89.5909091"></rect>
                        <rect id="矩形备份-4" fill="#EBECEC" x="0" y="0" width="77.2559289" height="6.77191034"></rect>
                    </g>
                    <path d="M15.2564229,17.6335366 L92.5123518,17.6335366 L92.5123518,107.224446 L38.6274229,107.223537 L38.6279644,107.240211 C38.6279644,113.694084 33.3960667,118.925982 26.9421937,118.925982 C20.4883207,118.925982 15.2564229,113.694084 15.2564229,107.240211 L15.2564229,17.6335366 Z" id="形状结合" fill="#EEEEEE"></path>
                    <rect id="矩形" fill="#FFFFFF" x="46.1290659" y="48.2202921" width="39.4416676" height="5.19367589"></rect>
                    <rect id="矩形" fill="#FFFFFF" x="23.8275601" y="48.2202921" width="18.7955436" height="18.7955436"></rect>
                    <rect id="矩形备份-7" fill="#FFFFFF" x="46.1290659" y="61.8221599" width="39.4416676" height="5.19367589"></rect>
                    <rect id="矩形备份-8" fill="#FFFFFF" x="23.8275601" y="76.1363" width="61.7431734" height="5.19367589"></rect>
                    <rect id="矩形备份" fill="#FFFFFF" x="15.2564229" y="17.6335366" width="77.2559289" height="6.77191034"></rect>
                    <rect id="矩形备份" fill="#5E5E5E" x="78.6291152" y="17.6335366" width="13.8832366" height="6.77191034"></rect>
                    <path d="M50.3137352,95.1304074 L126.707016,95.1304074 C131.127477,95.1304074 134.710968,98.713899 134.710968,103.13436 L134.710968,118.925982 L134.710968,118.925982 L50.3137352,118.925982 L50.3137352,95.1304074 Z" id="矩形" fill="#D8D8D8"></path>
                    <path d="M50.3137352,95.1304074 C56.7676082,95.1304074 61.9995059,100.362305 61.9995059,106.816178 L61.9995059,118.925982 L61.9995059,118.925982 L38.6279644,118.925982 L38.6279644,106.816178 C38.6279644,100.362305 43.8598622,95.1304074 50.3137352,95.1304074 Z" id="矩形" fill="#5E5E5E"></path>
                    <path d="M73.2764671,118.925982 L61.9995059,118.925982 L61.9988117,110.312698 C63.3478312,115.276033 67.8859035,118.925982 73.2764671,118.925982 Z M145.09832,107.20868 C145.09832,113.679967 139.852305,118.925982 133.381018,118.925982 L73.2764671,118.925982 L73.2764671,118.925982 C79.73034,118.925982 84.9622378,113.694084 84.9622378,107.240211 L84.9617728,107.208301 L145.09832,107.20868 Z" id="形状结合" fill="#5E5E5E"></path>
                    <polygon id="路径-2" fill="#FFFFFF" points="20.7177514 44.1211008 20.7177514 28.5046383 37.0209543 28.5046383"></polygon>
                    <polygon id="路径-3" fill="#5E5E5E" points="95.7583992 23.3715415 95.7583992 35.2670733 107.653931 23.3715415"></polygon>
                    <path d="M95.7583992,0 L140.65168,0 C143.107491,-4.81352307e-15 145.09832,1.99082868 145.09832,4.44664032 L145.09832,23.3715415 L145.09832,23.3715415 L95.7583992,23.3715415 L95.7583992,0 Z" id="矩形" fill="#EBECEC"></path>
                    <circle id="椭圆形" fill="#3E464C" cx="94.4588863" cy="71.3248363" r="9.08893281"></circle>
                    <line x1="113.325751" y1="11.6857708" x2="126.606997" y2="11.6857708" id="路径" stroke="#5E5E5E" stroke-width="1.81818182"></line>
                    <line x1="119.966374" y1="18.3263937" x2="119.966374" y2="5.04514777" id="路径" stroke="#5E5E5E" stroke-width="1.81818182"></line>
                </g>
            </g>
        </g>
    </g>
</svg>