<?xml version="1.0" encoding="UTF-8"?>
<svg width="18px" height="19px" viewBox="0 0 18 19" version="1.1" xmlns="http://www.w3.org/2000/svg" xmlns:xlink="http://www.w3.org/1999/xlink">
    <title>清空</title>
    <g id="页面-1" stroke="none" stroke-width="1" fill="none" fill-rule="evenodd">
        <g id="点餐页面" transform="translate(-1824.000000, -46.000000)" fill="#8492A6" fill-rule="nonzero">
            <g id="编组-14" transform="translate(1824.000000, 46.000000)">
                <g id="清空" transform="translate(0.001356, 0.746662)">
                    <path d="M15.3,2.7 L12.6,2.7 L12.6,0.9 C12.6,0.403794643 12.1962054,2.85485921e-16 11.7,2.85485921e-16 L6.3,2.85485921e-16 C5.80379464,2.85485921e-16 5.4,0.403794643 5.4,0.9 L5.4,2.7 L2.7,2.7 C1.21138393,2.7 0,3.91138393 0,5.4 L0,15.3 C0,16.7886161 1.21138393,18 2.7,18 L15.3,18 C16.7886161,18 18,16.7886161 18,15.3 L18,5.4 C18,3.909375 16.7886161,2.7 15.3,2.7 L15.3,2.7 Z M16.2,15.3 C16.2,15.7962054 15.7962054,16.2 15.3,16.2 L14.4,16.2 L14.4,13.5 C14.4,13.0037946 13.9962054,12.6 13.5,12.6 C13.0037946,12.6 12.6,13.0037946 12.6,13.5 L12.6,16.2 L9.9,16.2 L9.9,13.5 C9.9,13.0037946 9.49620536,12.6 9,12.6 C8.50379464,12.6 8.1,13.0037946 8.1,13.5 L8.1,16.2 L5.4,16.2 L5.4,13.5 C5.4,13.0037946 4.99620536,12.6 4.5,12.6 C4.00379464,12.6 3.6,13.0037946 3.6,13.5 L3.6,16.2 L2.7,16.2 C2.20379464,16.2 1.8,15.7962054 1.8,15.3 L1.8,8.1 L16.2,8.1 L16.2,15.3 L16.2,15.3 Z M16.2,6.3 L1.8,6.3 L1.8,5.4 C1.8,4.90379464 2.20379464,4.5 2.7,4.5 L6.3,4.5 C6.79620536,4.5 7.2,4.09620536 7.2,3.6 L7.2,1.8 L10.8,1.8 L10.8,3.6 C10.8,4.09620536 11.2037946,4.5 11.7,4.5 L15.3,4.5 C15.7962054,4.5 16.2,4.90379464 16.2,5.4 L16.2,6.3 Z" id="形状"></path>
                </g>
            </g>
        </g>
    </g>
</svg>